#!OML:ASF F:\twosubjects\two\Thursday\Session 1\Rory.ASF
:FULLY-SPECIFIED
:DEGREES
441
root 5.6579 18.2988 -9.7389 -362.836 -59.3499 -352.321
lowerback 0.0772375 -3.38001 -1.3384
upperback 0.948284 -4.51305 1.00309
thorax 1.11262 -2.27488 1.72713
lowerneck -11.9136 5.33007 5.06092
upperneck 19.9513 8.3728 -10.289
head 8.85838 3.21927 -3.38796
rclavicle -4.86029e-014 3.97569e-015
rhumerus -42.5033 -22.5381 -56.2865
rradius 22.855
rwrist 22.5951
rhand -22.0895 19.7198
rfingers 7.12502
rthumb 4.32238 -10.2161
lclavicle -4.86029e-014 3.97569e-015
lhumerus -36.6257 -33.5094 105.338
lradius 89.3147
lwrist 12.9907
lhand -6.6267 39.9531
lfingers 7.12502
lthumb 19.2298 69.0224
rfemur -16.7214 6.67128 14.3956
rtibia 24.6633
rfoot -9.89164 -5.30819
rtoes -19.7519
lfemur -6.57597 15.0326 -17.7191
ltibia 37.2273
lfoot -14.8207 13.5139
ltoes 13.3254
442
root 5.71041 18.2923 -9.74465 -362.043 -59.1194 -353.098
lowerback -0.144591 -3.52254 -1.1486
upperback 0.790776 -4.70331 1.17247
thorax 1.08198 -2.36781 1.78328
lowerneck -11.7522 5.33379 4.88315
upperneck 19.9085 8.3979 -10.2276
head 8.80545 3.22885 -3.33673
rclavicle 3.43897e-014 -6.36111e-015
rhumerus -42.5131 -21.4572 -56.8331
rradius 23.0463
rwrist 20.3493
rhand -19.7791 20.3626
rfingers 7.12502
rthumb 6.55304 -9.51605
lclavicle 3.43897e-014 -6.36111e-015
lhumerus -36.4328 -34.0833 105.594
lradius 89.3361
lwrist 13.034
lhand -6.64231 40.1718
lfingers 7.12502
lthumb 19.2148 69.2426
rfemur -16.8486 6.57655 14.6633
rtibia 24.319
rfoot -9.46835 -5.37813
rtoes -19.2052
lfemur -6.00033 14.3686 -17.5261
ltibia 36.4737
lfoot -14.0953 13.0579
ltoes 14.4716
443
root 5.76386 18.2937 -9.74189 -361.67 -58.8532 -353.401
lowerback -0.477248 -3.57868 -0.926761
upperback 0.680042 -4.77645 1.12513
thorax 1.13522 -2.40141 1.59282
lowerneck -11.7463 5.18739 4.48587
upperneck 20.0777 8.18927 -9.78236
head 8.80644 3.13965 -3.14544
rclavicle -6.16232e-014 8.74653e-015
rhumerus -42.6744 -20.5608 -57.3417
rradius 23.2023
rwrist 18.9136
rhand -18.617 20.228
rfingers 7.12502
rthumb 7.67484 -9.61275
lclavicle -6.16232e-014 8.74653e-015
lhumerus -36.1323 -34.85 105.689
lradius 89.2354
lwrist 12.4929
lhand -4.7614 39.4853
lfingers 7.12502
lthumb 21.0226 68.3658
rfemur -17.0008 6.24017 14.6671
rtibia 24.1002
rfoot -9.2013 -5.2224
rtoes -19.5396
lfemur -5.34806 13.5718 -17.6102
ltibia 35.5591
lfoot -13.9141 12.4547
ltoes 13.7846
444
root 5.82107 18.296 -9.73797 -361.615 -58.4295 -353.555
lowerback -0.616905 -3.67926 -0.904946
upperback 0.655583 -4.90991 1.11752
thorax 1.19054 -2.46793 1.56144
lowerneck -11.7867 5.10897 4.32118
upperneck 20.2549 8.10035 -9.66927
head 8.85518 3.0887 -3.09154
rclavicle 2.41026e-014 -1.51076e-014
rhumerus -43.0881 -21.5554 -56.5056
rradius 23.1788
rwrist 20.3691
rhand -18.482 19.6395
rfingers 7.12502
rthumb 7.80509 -10.1964
lclavicle 2.41026e-014 -1.51076e-014
lhumerus -35.6591 -35.6161 105.765
lradius 89.1554
lwrist 11.6835
lhand -3.10688 38.5599
lfingers 7.12502
lthumb 22.6114 67.2555
rfemur -16.9886 5.99547 14.5816
rtibia 24.0588
rfoot -9.1429 -5.3486
rtoes -20.2616
lfemur -4.45647 12.5582 -17.7763
ltibia 34.4145
lfoot -14.0484 12.0218
ltoes 7.21564
445
root 5.87883 18.2807 -9.74523 -361.539 -58.0903 -353.843
lowerback -0.612388 -3.70237 -0.988994
upperback 0.647164 -4.94022 1.14542
thorax 1.19006 -2.48395 1.63623
lowerneck -11.5698 5.08916 4.23839
upperneck 20.2333 8.06377 -9.55219
head 8.79547 3.08388 -3.04608
rclavicle -1.02126e-013 7.95139e-015
rhumerus -43.5259 -22.2025 -56.0792
rradius 23.2499
rwrist 20.1561
rhand -19.1685 18.7411
rfingers 7.12502
rthumb 7.14254 -11.1184
lclavicle -1.02126e-013 7.95139e-015
lhumerus -35.3392 -36.4638 106.073
lradius 89.1414
lwrist 11.1725
lhand -3.74136 39.108
lfingers 7.12502
lthumb 22.0023 67.8765
rfemur -16.9091 7.37953 14.4963
rtibia 24.1296
rfoot -9.11041 -7.00078
rtoes -19.1553
lfemur -3.33779 11.7512 -17.8534
ltibia 33.0181
lfoot -13.8208 11.8489
ltoes 0.0936127
446
root 5.94066 18.2654 -9.75266 -361.624 -57.7851 -353.762
lowerback -0.731084 -3.6489 -1.12099
upperback 0.602085 -4.86452 1.02152
thorax 1.20762 -2.44601 1.5781
lowerneck -10.954 5.0135 3.9756
upperneck 19.828 7.89014 -9.10811
head 8.49922 3.05903 -2.87938
rclavicle -4.01545e-014 -4.77083e-015
rhumerus -43.954 -22.0311 -56.3276
rradius 23.4677
rwrist 19.0147
rhand -19.651 18.7401
rfingers 7.12502
rthumb 6.67676 -11.1347
lclavicle -4.01545e-014 -4.77083e-015
lhumerus -35.0611 -37.4217 106.43
lradius 89.0563
lwrist 10.9752
lhand -4.45006 39.518
lfingers 7.12502
lthumb 21.3217 68.3651
rfemur -17.0675 8.37634 14.1963
rtibia 24.2269
rfoot -9.13722 -8.15377
rtoes -17.1602
lfemur -2.29945 11.0267 -18.205
ltibia 31.4177
lfoot -14.0713 12.0209
ltoes -6.0059
447
root 6.00915 18.2592 -9.75053 -361.61 -57.4829 -353.705
lowerback -0.873958 -3.71384 -1.24938
upperback 0.544709 -4.94747 0.982721
thorax 1.23924 -2.48794 1.59968
lowerneck -11.4987 4.89255 4.39411
upperneck 20.3016 7.70308 -9.26139
head 8.76939 2.95799 -3.0181
rclavicle 6.56486e-014 -4.77083e-015
rhumerus -44.1217 -22.2291 -56.2095
rradius 23.4295
rwrist 19.5252
rhand -19.4928 19.6497
rfingers 7.12502
rthumb 6.82941 -10.2201
lclavicle 6.56486e-014 -4.77083e-015
lhumerus -34.6545 -37.936 106.647
lradius 88.933
lwrist 10.6175
lhand -4.61602 38.9934
lfingers 7.12502
lthumb 21.1623 67.8584
rfemur -17.3997 6.64739 14.0826
rtibia 24.2772
rfoot -9.04091 -6.72558
rtoes -18.2573
lfemur -1.40746 10.1535 -18.5844
ltibia 29.6598
lfoot -14.4548 12.419
ltoes -8.77799
448
root 6.07503 18.2579 -9.74755 -360.845 -57.3096 -354.582
lowerback -1.03905 -3.75318 -1.00686
upperback 0.575372 -5.00581 1.19284
thorax 1.36336 -2.51744 1.66512
lowerneck -11.7437 4.82496 4.2321
upperneck 20.3484 7.62885 -9.19384
head 8.81623 2.90983 -2.97264
rclavicle 4.23411e-014 1.11319e-014
rhumerus -44.077 -22.8245 -55.7929
rradius 23.2649
rwrist 20.4914
rhand -19.2747 20.172
rfingers 7.12502
rthumb 7.04002 -9.69096
lclavicle 4.23411e-014 1.11319e-014
lhumerus -34.081 -38.3835 106.877
lradius 88.8107
lwrist 10.3105
lhand -4.91749 38.7482
lfingers 7.12502
lthumb 20.8727 67.6453
rfemur -17.62 5.11992 14.5555
rtibia 24.2289
rfoot -8.92052 -5.39214
rtoes -19.7579
lfemur -0.552429 9.20812 -18.3626
ltibia 27.7898
lfoot -15.1395 13.0931
ltoes -9.25346
449
root 6.14014 18.2619 -9.75083 -360.136 -57.0785 -355.479
lowerback -0.954671 -3.76057 -0.886024
upperback 0.520175 -5.02163 1.44354
thorax 1.27237 -2.52544 1.86197
lowerneck -11.8003 4.73065 3.91954
upperneck 20.3379 7.5165 -8.9922
head 8.79424 2.85266 -2.86356
rclavicle 2.47487e-014 -6.36111e-015
rhumerus -44.1888 -22.9083 -55.5792
rradius 23.3145
rwrist 20.7691
rhand -18.9644 20.001
rfingers 7.12502
rthumb 7.33954 -9.85171
lclavicle 2.47487e-014 -6.36111e-015
lhumerus -33.5995 -38.8406 107.256
lradius 88.6005
lwrist 10.1472
lhand -4.77122 38.4628
lfingers 7.12502
lthumb 21.0132 67.3444
rfemur -17.6612 5.10395 14.9419
rtibia 24.1043
rfoot -8.57142 -5.54946
rtoes -20.7065
lfemur 0.314978 7.97609 -18.1288
ltibia 25.8564
lfoot -15.9959 14.049
ltoes -8.16371
450
root 6.20832 18.2578 -9.75703 -360.154 -56.7311 -355.553
lowerback -0.750377 -3.88635 -1.28578
upperback 0.395607 -5.18536 1.52574
thorax 1.08021 -2.60878 2.18264
lowerneck -11.6967 4.75078 4.211
upperneck 20.3879 7.52203 -9.14262
head 8.80958 2.86339 -2.96581
rclavicle 8.52786e-014 -1.43125e-014
rhumerus -44.2867 -22.7697 -55.5922
rradius 23.2837
rwrist 21.0331
rhand -19.2331 19.9887
rfingers 7.12502
rthumb 7.08014 -9.87289
lclavicle 8.52786e-014 -1.43125e-014
lhumerus -33.2926 -38.9857 107.366
lradius 88.4677
lwrist 9.62846
lhand -5.28945 38.4687
lfingers 7.12502
lthumb 20.5153 67.4048
rfemur -17.6488 5.2897 14.7936
rtibia 23.9397
rfoot -8.03176 -5.97721
rtoes -20.5869
lfemur 1.18267 6.77857 -18.4007
ltibia 23.9655
lfoot -16.6075 14.9038
ltoes -7.34975
451
root 6.28116 18.2509 -9.76601 -360.047 -56.4352 -355.572
lowerback -0.78621 -3.90988 -1.68136
upperback 0.297888 -5.2127 1.61414
thorax 1.04503 -2.6245 2.4921
lowerneck -11.6896 4.67596 4.24645
upperneck 20.4176 7.41327 -9.14398
head 8.81127 2.81456 -2.9858
rclavicle -1.05356e-014 1.59028e-015
rhumerus -44.4727 -23.0843 -55.2455
rradius 23.1836
rwrist 21.5543
rhand -19.607 20.6016
rfingers 7.12502
rthumb 6.71917 -9.27182
lclavicle -1.05356e-014 1.59028e-015
lhumerus -32.9928 -39.4044 107.624
lradius 88.3661
lwrist 9.18506
lhand -6.99734 39.0614
lfingers 7.12502
lthumb 18.8734 68.1658
rfemur -17.8651 5.19389 14.6109
rtibia 23.7594
rfoot -7.66656 -6.0443
rtoes -19.3124
lfemur 1.77238 5.96398 -18.6981
ltibia 22.2201
lfoot -17.2325 15.4618
ltoes -6.34896
452
root 6.35729 18.2519 -9.77973 -359.891 -56.2642 -355.666
lowerback -0.489605 -3.82628 -2.42087
upperback 0.0524133 -5.10346 2.03282
thorax 0.72424 -2.56994 3.36536
lowerneck -11.8287 4.45413 3.54398
upperneck 20.7228 7.20383 -8.86559
head 8.88923 2.67469 -2.79921
rclavicle 4.22417e-015 1.59028e-014
rhumerus -44.6489 -22.7508 -54.7912
rradius 23.3413
rwrist 21.1628
rhand -19.5235 20.692
rfingers 7.12502
rthumb 6.79983 -9.17876
lclavicle 4.22417e-015 1.59028e-014
lhumerus -32.9747 -39.7661 108.728
lradius 88.2143
lwrist 9.21689
lhand -5.57223 38.1348
lfingers 7.12502
lthumb 20.2435 67.0999
rfemur -18.1617 4.708 14.5557
rtibia 23.6518
rfoot -7.4544 -5.64162
rtoes -19.5298
lfemur 2.27775 5.30798 -18.9124
ltibia 20.5923
lfoot -17.4975 16.0622
ltoes -4.8622
453
root 6.42984 18.2549 -9.78888 -359.961 -56.0537 -355.596
lowerback -0.704563 -3.95996 -2.45143
upperback 0.183778 -5.27389 1.72128
thorax 0.965682 -2.65834 3.0367
lowerneck -11.8177 4.49859 3.90027
upperneck 20.6502 7.11953 -8.54175
head 8.85501 2.70182 -2.75702
rclavicle 6.83322e-014 -7.15625e-015
rhumerus -44.399 -23.0909 -55.6098
rradius 23.3507
rwrist 21.3755
rhand -19.7907 19.8064
rfingers 7.12502
rthumb 6.54183 -10.0725
lclavicle 6.83322e-014 -7.15625e-015
lhumerus -32.6576 -40.1201 108.235
lradius 88.1279
lwrist 8.9588
lhand -4.62838 37.9113
lfingers 7.12502
lthumb 21.1504 66.7776
rfemur -18.3205 4.53504 14.3641
rtibia 23.6372
rfoot -7.24953 -5.60956
rtoes -19.9831
lfemur 2.88259 4.60654 -19.2374
ltibia 19.0273
lfoot -16.8535 16.9361
ltoes -6.28177
